# xmcd
#
# Track frame offsets:
#	150
#	13896
#	27778
#	38736
#	50338
#	62555
#	72847
#	84151
#	98204
#	109840
#	124202
#	136136
#	148424
#	163851
#	177810
#	192344
#	202764
#	215779
#	229191
#	243481
#
# Disc length: 3399 seconds
#
# Revision: 1
# Processed by: cddbd v1.5.2PL0 Copyright (c) Steve Scherf et al.
# Submitted via: MusicManager 7.3.0.0 
#
DISCID=1d0d4514
DTITLE=John Lee Hooker - Boogie Chillen - Disk 02
DYEAR=1175
DGENRE=Blues
TTITLE0=Too Much Boogie
TTITLE1=Need Somebody
TTITLE2=Gotta Boogie
TTITLE3=Pouring Down Rain
TTITLE4=Lovin' Guitar Man
TTITLE5=Stuttering Blues
TTITLE6=Blue Monday
TTITLE7=Half A Stranger
TTITLE8=Baby I'm Gonna Miss You
TTITLE9=Taxi Driver
TTITLE10=I'm Ready
TTITLE11=Hug And Squeeze
TTITLE12=I Need Love So Bad
TTITLE13=The Syndicator
TTITLE14=Baby You Ain't No Good
TTITLE15=I'm A Boogie Man
TTITLE16=Down Child
TTITLE17=It's My Own Fault
TTITLE18=Bad Boy
TTITLE19=Shake, Holler And Run
EXTD=YEAR: 2006
EXTT0=
EXTT1=
EXTT2=
EXTT3=
EXTT4=
EXTT5=
EXTT6=
EXTT7=
EXTT8=
EXTT9=
EXTT10=
EXTT11=
EXTT12=
EXTT13=
EXTT14=
EXTT15=
EXTT16=
EXTT17=
EXTT18=
EXTT19=
PLAYORDER=
